# Rhino

mtllib ModuleAssymbly_111.mtl
g Group12
o object_1
usemtl Lightgreen
v -0.86499768495559692 0.33500000834465027 0.29999938607215881
v -0.829997718334198 0.33500000834465027 0.29999938607215881
v -0.829997718334198 0.33500000834465027 0.26499953866004944
v -0.829997718334198 0.33500000834465027 0.26499953866004944
v -0.829997718334198 0.30000001192092896 0.26499953866004944
v -0.86499768495559692 0.33500000834465027 0.29999938607215881
v -0.86499768495559692 0.30000001192092896 0.29999938607215881
v -0.829997718334198 0.33500000834465027 0.29999938607215881
v -0.829997718334198 0.30000001192092896 0.29999938607215881
v -0.829997718334198 0.33500000834465027 0.26499953866004944
v -0.829997718334198 0.30000001192092896 0.26499953866004944
v -0.86499768495559692 0.33500000834465027 0.29999938607215881
v -0.86499768495559692 0.30000001192092896 0.29999938607215881
v -0.829997718334198 0.33500000834465027 0.29999938607215881
v -0.829997718334198 0.30000001192092896 0.29999938607215881
v -0.86499768495559692 0.30000001192092896 0.29999938607215881
v -0.829997718334198 0.30000001192092896 0.29999938607215881
v -0.829997718334198 0.30000001192092896 0.26499953866004944
vt 0.3318684995174408 0.3333333432674408
vt 0 0.3333333432674408
vt 0 0.66666668653488159
vt 0.66520184278488159 0.3333333432674408
vt 0.3333333432674408 0.3333333432674408
vt 0.66520184278488159 0.80327302217483521
vt 0.3333333432674408 0.80327302217483521
vt 0.99853515625 0.4023689329624176
vt 0.66666668653488159 0.4023689329624176
vt 0.99853515625 0.7357022762298584
vt 0.66666668653488159 0.7357022762298584
vt 0.99853515625 0
vt 0.66666668653488159 0
vt 0.99853515625 0.3333333432674408
vt 0.66666668653488159 0.3333333432674408
vt 0 0
vt 0 0.3318684995174408
vt 0.3333333432674408 0.3318684995174408
vn 0 1 0
vn 0 1 0
vn 0 1 0
vn -0.70710676908493042 0 -0.70710676908493042
vn -0.70710676908493042 0 -0.70710676908493042
vn -0.70710676908493042 0 -0.70710676908493042
vn -0.70710676908493042 0 -0.70710676908493042
vn 1 0 0
vn 1 0 0
vn 1 0 0
vn 1 0 0
vn 0 0 1
vn 0 0 1
vn 0 0 1
vn 0 0 1
vn 0 -1 0
vn 0 -1 0
vn 0 -1 0
f 2/2/2 3/3/3 1/1/1
f 5/5/5 7/7/7 6/6/6 4/4/4
f 9/9/9 11/11/11 10/10/10 8/8/8
f 13/13/13 15/15/15 14/14/14 12/12/12
f 17/17/17 16/16/16 18/18/18
o object_2
usemtl Lightgreen
v -0.829997718334198 0.30000001192092896 0.26499953866004944
v -0.829997718334198 -8.1728529499613956E-10 0.26499953866004944
v -0.829997718334198 0.30000001192092896 0.29999938607215881
v -0.829997718334198 -8.1728529499613956E-10 0.29999938607215881
v -0.86499768495559692 0.30000001192092896 0.26499953866004944
v -0.86499768495559692 -8.1728529499613956E-10 0.26499953866004944
v -0.829997718334198 0.30000001192092896 0.26499953866004944
v -0.829997718334198 -8.1728529499613956E-10 0.26499953866004944
v -0.86499768495559692 0.30000001192092896 0.29999938607215881
v -0.86499768495559692 -8.1728529499613956E-10 0.29999938607215881
v -0.86499768495559692 0.30000001192092896 0.26499953866004944
v -0.86499768495559692 -8.1728529499613956E-10 0.26499953866004944
v -0.829997718334198 0.30000001192092896 0.29999938607215881
v -0.829997718334198 -8.1728529499613956E-10 0.29999938607215881
v -0.86499768495559692 0.30000001192092896 0.29999938607215881
v -0.86499768495559692 -8.1728529499613956E-10 0.29999938607215881
v -0.86499768495559692 0.30000001192092896 0.29999938607215881
v -0.86499768495559692 0.30000001192092896 0.26499953866004944
v -0.829997718334198 0.30000001192092896 0.29999938607215881
v -0.829997718334198 0.30000001192092896 0.26499953866004944
v -0.86499768495559692 -8.1728529499613956E-10 0.29999938607215881
v -0.86499768495559692 -8.1728529499613956E-10 0.26499953866004944
v -0.829997718334198 -8.1728529499613956E-10 0.29999938607215881
v -0.829997718334198 -8.1728529499613956E-10 0.26499953866004944
vt 0 0
vt 0 0.89405757188796997
vt 0.10301277041435242 0
vt 0.10301277041435242 0.89405757188796997
vt 0.99853515625 0.6716417670249939
vt 0.10447761416435242 0.6716417670249939
vt 0.99853515625 0.7761194109916687
vt 0.10447761416435242 0.7761194109916687
vt 0.99853515625 0.44776120781898499
vt 0.10447761416435242 0.44776120781898499
vt 0.99853515625 0.5522388219833374
vt 0.10447761416435242 0.5522388219833374
vt 0.99853515625 0.22388060390949249
vt 0.10447761416435242 0.22388060390949249
vt 0.99853515625 0.32835820317268372
vt 0.10447761416435242 0.32835820317268372
vt 0.65671640634536743 0
vt 0.5522388219833374 0
vt 0.65671640634536743 0.10447761416435242
vt 0.5522388219833374 0.10447761416435242
vt 0.20895522832870483 0
vt 0.10447761416435242 0
vt 0.20895522832870483 0.10447761416435242
vt 0.10447761416435242 0.10447761416435242
vn 1 0 0
vn 1 0 0
vn 1 0 0
vn 1 0 0
vn 0 0 -1
vn 0 0 -1
vn 0 0 -1
vn 0 0 -1
vn -1 0 0
vn -1 0 0
vn -1 0 0
vn -1 0 0
vn 0 0 1
vn 0 0 1
vn 0 0 1
vn 0 0 1
vn 0 1 0
vn 0 1 0
vn 0 1 0
vn 0 1 0
vn 0 -1 0
vn 0 -1 0
vn 0 -1 0
vn 0 -1 0
f 20/20/20 19/19/19 21/21/21 22/22/22
f 24/24/24 23/23/23 25/25/25 26/26/26
f 28/28/28 27/27/27 29/29/29 30/30/30
f 32/32/32 31/31/31 33/33/33 34/34/34
f 36/36/36 35/35/35 37/37/37 38/38/38
f 40/40/40 42/42/42 41/41/41 39/39/39
