# Rhino

mtllib ModuleAssembly_layer1_9.mtl
g Group28
o object_1
usemtl Lemon
v 0.40273496508598328 0.9262729287147522 -0.90226304531097412
v 0.40273496508598328 0.9262729287147522 -0.90226304531097412
v 0.33273431658744812 0.9262729287147522 -0.90226304531097412
v 0.33273431658744812 0.9262729287147522 -0.97225987911224365
v 0.33273431658744812 0.9262729287147522 -0.90226304531097412
v 0.33273431658744812 0.91627293825149536 -0.90226304531097412
v 0.40273496508598328 0.9262729287147522 -0.90226304531097412
v 0.40273496508598328 0.91627293825149536 -0.90226304531097412
v 0.33273431658744812 0.9262729287147522 -0.97225987911224365
v 0.33273431658744812 0.91627293825149536 -0.97225987911224365
v 0.33273431658744812 0.9262729287147522 -0.90226304531097412
v 0.33273431658744812 0.91627293825149536 -0.90226304531097412
v 0.40273496508598328 0.9262729287147522 -0.90226304531097412
v 0.40273496508598328 0.91627293825149536 -0.90226304531097412
v 0.33273431658744812 0.9262729287147522 -0.97225987911224365
v 0.33273431658744812 0.91627293825149536 -0.97225987911224365
v 0.40273496508598328 0.91627293825149536 -0.90226304531097412
v 0.40273496508598328 0.91627293825149536 -0.90226304531097412
v 0.33273431658744812 0.91627293825149536 -0.90226304531097412
v 0.33273431658744812 0.91627293825149536 -0.97225987911224365
vt 0.9318661093711853 0.1333380788564682
vt 0.46666547656059265 0.1333380788564682
vt 0.9318661093711853 0.79185295104980469
vt 0.46666547656059265 0.79185295104980469
vt 0 0.0666690394282341
vt 0 0.1318732351064682
vt 0.46668678522109985 0.0666690394282341
vt 0.46668678522109985 0.1318732351064682
vt 0 0
vt 0 0.0652041956782341
vt 0.46666547656059265 0
vt 0.46666547656059265 0.0652041956782341
vt 0.99853515625 0
vt 0.9333309531211853 0
vt 0.99853515625 0.65997970104217529
vt 0.9333309531211853 0.65997970104217529
vt 0.46520063281059265 0.1333380788564682
vt 0 0.1333380788564682
vt 0.46520063281059265 0.79185295104980469
vt 0 0.79185295104980469
vn 0 1 0
vn 0 1 0
vn 0 1 0
vn 0 1 0
vn 0 0 1
vn 0 0 1
vn 0 0 1
vn 0 0 1
vn -1 0 0
vn -1 0 0
vn -1 0 0
vn -1 0 0
vn 0.70709061622619629 0 -0.70712292194366455
vn 0.70709061622619629 0 -0.70712292194366455
vn 0.70709061622619629 0 -0.70712292194366455
vn 0.70709061622619629 0 -0.70712292194366455
vn 0 -1 0
vn 0 -1 0
vn 0 -1 0
vn 0 -1 0
f 2/2/2 4/4/4 3/3/3
f 6/6/6 8/8/8 7/7/7 5/5/5
f 10/10/10 12/12/12 11/11/11 9/9/9
f 14/14/14 16/16/16 15/15/15 13/13/13
f 18/18/18 19/19/19 20/20/20
g Group03 Group28
o object_2
usemtl Lemon
v 0.26273366808891296 0.59127295017242432 -0.86726510524749756
v 0.26273366808891296 0.59127295017242432 -0.83226525783538818
v 0.29773351550102234 0.59127295017242432 -0.86726510524749756
v 0.26273366808891296 0.59127295017242432 -0.83226525783538818
v 0.26273366808891296 0.62627291679382324 -0.83226525783538818
v 0.29773351550102234 0.59127295017242432 -0.86726510524749756
v 0.29773351550102234 0.62627291679382324 -0.86726510524749756
v 0.26273366808891296 0.59127295017242432 -0.86726510524749756
v 0.26273366808891296 0.62627291679382324 -0.86726510524749756
v 0.26273366808891296 0.59127295017242432 -0.83226525783538818
v 0.26273366808891296 0.62627291679382324 -0.83226525783538818
v 0.29773351550102234 0.59127295017242432 -0.86726510524749756
v 0.29773351550102234 0.62627291679382324 -0.86726510524749756
v 0.26273366808891296 0.59127295017242432 -0.86726510524749756
v 0.26273366808891296 0.62627291679382324 -0.86726510524749756
v 0.26273366808891296 0.62627291679382324 -0.86726510524749756
v 0.26273366808891296 0.62627291679382324 -0.83226525783538818
v 0.29773351550102234 0.62627291679382324 -0.86726510524749756
vt 0.3318684995174408 0.3333333432674408
vt 0 0.3333333432674408
vt 0.3318684995174408 0.66520184278488159
vt 0.3333333432674408 0
vt 0.3333333432674408 0.3318684995174408
vt 0.80473786592483521 0
vt 0.80473786592483521 0.3318684995174408
vt 0.99853515625 0.3333333432674408
vt 0.66666668653488159 0.3333333432674408
vt 0.99853515625 0.66520184278488159
vt 0.66666668653488159 0.66520184278488159
vt 0.66520184278488159 0.3333333432674408
vt 0.3333333432674408 0.3333333432674408
vt 0.66520184278488159 0.66520184278488159
vt 0.3333333432674408 0.66520184278488159
vt 0.3318684995174408 0
vt 0 0
vt 0.3318684995174408 0.3318684995174408
vn 0 -1 0
vn 0 -1 0
vn 0 -1 0
vn 0.70710676908493042 0 0.70710676908493042
vn 0.70710676908493042 0 0.70710676908493042
vn 0.70710676908493042 0 0.70710676908493042
vn 0.70710676908493042 0 0.70710676908493042
vn -1 0 0
vn -1 0 0
vn -1 0 0
vn -1 0 0
vn 0 0 -1
vn 0 0 -1
vn 0 0 -1
vn 0 0 -1
vn 0 1 0
vn 0 1 0
vn 0 1 0
f 22/22/22 21/21/21 23/23/23
f 25/25/25 24/24/24 26/26/26 27/27/27
f 29/29/29 28/28/28 30/30/30 31/31/31
f 33/33/33 32/32/32 34/34/34 35/35/35
f 37/37/37 38/38/38 36/36/36
o object_3
usemtl Lemon
v 0.26273366808891296 0.89127296209335327 -0.86726510524749756
v 0.29773351550102234 0.89127296209335327 -0.83226525783538818
v 0.26273366808891296 0.89127296209335327 -0.83226525783538818
v 0.29773351550102234 0.89127296209335327 -0.83226525783538818
v 0.29773351550102234 0.9262729287147522 -0.83226525783538818
v 0.26273366808891296 0.89127296209335327 -0.86726510524749756
v 0.26273366808891296 0.9262729287147522 -0.86726510524749756
v 0.26273366808891296 0.89127296209335327 -0.83226525783538818
v 0.26273366808891296 0.9262729287147522 -0.83226525783538818
v 0.29773351550102234 0.89127296209335327 -0.83226525783538818
v 0.29773351550102234 0.9262729287147522 -0.83226525783538818
v 0.26273366808891296 0.89127296209335327 -0.86726510524749756
v 0.26273366808891296 0.9262729287147522 -0.86726510524749756
v 0.26273366808891296 0.89127296209335327 -0.83226525783538818
v 0.26273366808891296 0.9262729287147522 -0.83226525783538818
v 0.26273366808891296 0.9262729287147522 -0.86726510524749756
v 0.29773351550102234 0.9262729287147522 -0.83226525783538818
v 0.26273366808891296 0.9262729287147522 -0.83226525783538818
vt 0.33186852931976318 0.33333337306976318
vt 0 0.66666793823242188
vt 1.3253206816443708E-06 0.33333337306976318
vt 0.66520059108734131 0.33333337306976318
vt 0.33333337306976318 0.33333337306976318
vt 0.66520059108734131 0.80327397584915161
vt 0.33333337306976318 0.80327397584915161
vt 0.66666543483734131 0.40236940979957581
vt 0.66666543483734131 0.73570144176483154
vt 0.99853515625 0.40236940979957581
vt 0.99853515625 0.73570144176483154
vt 0.66666543483734131 0
vt 0.66666543483734131 0.33333206176757812
vt 0.99853515625 0
vt 0.99853515625 0.33333206176757812
vt 0 0
vt 0.33333456516265869 0.33186852931976318
vt 0 0.33186721801757812
vn 0 -1 0
vn 0 -1 0
vn 0 -1 0
vn 0.70710551738739014 0 -0.7071080207824707
vn 0.70710551738739014 0 -0.7071080207824707
vn 0.70710551738739014 0 -0.7071080207824707
vn 0.70710551738739014 0 -0.7071080207824707
vn -3.9801057027943898E-06 0 1
vn -3.9801057027943898E-06 0 1
vn -3.9801057027943898E-06 0 1
vn -3.9801057027943898E-06 0 1
vn -1 0 0
vn -1 0 0
vn -1 0 0
vn -1 0 0
vn 0 1 0
vn 0 1 0
vn 0 1 0
f 41/41/41 39/39/39 40/40/40
f 43/43/43 42/42/42 44/44/44 45/45/45
f 47/47/47 46/46/46 48/48/48 49/49/49
f 51/51/51 50/50/50 52/52/52 53/53/53
f 56/56/56 55/55/55 54/54/54
o object_4
usemtl Lemon
v 0.29773351550102234 0.62627291679382324 -0.83226525783538818
v 0.29773351550102234 0.89127296209335327 -0.83226525783538818
v 0.29773351550102234 0.62627291679382324 -0.86726510524749756
v 0.29773351550102234 0.89127296209335327 -0.86726510524749756
v 0.26273366808891296 0.62627291679382324 -0.83226525783538818
v 0.26273366808891296 0.89127296209335327 -0.83226525783538818
v 0.29773351550102234 0.62627291679382324 -0.83226525783538818
v 0.29773351550102234 0.89127296209335327 -0.83226525783538818
v 0.26273366808891296 0.62627291679382324 -0.86726510524749756
v 0.26273366808891296 0.89127296209335327 -0.86726510524749756
v 0.26273366808891296 0.62627291679382324 -0.83226525783538818
v 0.26273366808891296 0.89127296209335327 -0.83226525783538818
v 0.29773351550102234 0.62627291679382324 -0.86726510524749756
v 0.29773351550102234 0.89127296209335327 -0.86726510524749756
v 0.26273366808891296 0.62627291679382324 -0.86726510524749756
v 0.26273366808891296 0.89127296209335327 -0.86726510524749756
v 0.26273366808891296 0.62627291679382324 -0.86726510524749756
v 0.26273366808891296 0.62627291679382324 -0.83226525783538818
v 0.29773351550102234 0.62627291679382324 -0.86726510524749756
v 0.29773351550102234 0.62627291679382324 -0.83226525783538818
v 0.26273366808891296 0.89127296209335327 -0.86726510524749756
v 0.26273366808891296 0.89127296209335327 -0.83226525783538818
v 0.29773351550102234 0.89127296209335327 -0.86726510524749756
v 0.29773351550102234 0.89127296209335327 -0.83226525783538818
vt 0.99853515625 0.44166666269302368
vt 0.11666666716337204 0.44166666269302368
vt 0.99853515625 0.55833333730697632
vt 0.11666666716337204 0.55833333730697632
vt 0.99853515625 0.66250002384185791
vt 0.11666666716337204 0.66250002384185791
vt 0.99853515625 0.77916663885116577
vt 0.11666666716337204 0.77916663885116577
vt 0.99853515625 0.22083333134651184
vt 0.11666666716337204 0.22083333134651184
vt 0.99853515625 0.33750000596046448
vt 0.11666666716337204 0.33750000596046448
vt 0 0
vt 0 0.88186848163604736
vt 0.11520182341337204 0
vt 0.11520182341337204 0.88186848163604736
vt 0.55833333730697632 0
vt 0.55833333730697632 0.11666666716337204
vt 0.67500001192092896 0
vt 0.67500001192092896 0.11666666716337204
vt 0.11666666716337204 0
vt 0.11666666716337204 0.11666666716337204
vt 0.23333333432674408 0
vt 0.23333333432674408 0.11666666716337204
vn 1 0 0
vn 1 0 0
vn 1 0 0
vn 1 0 0
vn 0 0 1
vn 0 0 1
vn 0 0 1
vn 0 0 1
vn -1 0 0
vn -1 0 0
vn -1 0 0
vn -1 0 0
vn 0 0 -1
vn 0 0 -1
vn 0 0 -1
vn 0 0 -1
vn 0 -1 0
vn 0 -1 0
vn 0 -1 0
vn 0 -1 0
vn 0 1 0
vn 0 1 0
vn 0 1 0
vn 0 1 0
f 58/58/58 57/57/57 59/59/59 60/60/60
f 62/62/62 61/61/61 63/63/63 64/64/64
f 66/66/66 65/65/65 67/67/67 68/68/68
f 70/70/70 69/69/69 71/71/71 72/72/72
f 74/74/74 73/73/73 75/75/75 76/76/76
f 78/78/78 80/80/80 79/79/79 77/77/77
