# Rhino

mtllib ModuleAssembly_layer1_5.mtl
g Group35
o object_1
usemtl Green
v 0.96773260831832886 0.32627293467521667 0.22773611545562744
v 0.96773260831832886 0.32627293467521667 0.22773611545562744
v 0.8977319598197937 0.32627293467521667 0.22773611545562744
v 0.8977319598197937 0.32627293467521667 0.15773928165435791
v 0.8977319598197937 0.32627293467521667 0.22773611545562744
v 0.8977319598197937 0.31627294421195984 0.22773611545562744
v 0.96773260831832886 0.32627293467521667 0.22773611545562744
v 0.96773260831832886 0.31627294421195984 0.22773611545562744
v 0.8977319598197937 0.32627293467521667 0.15773928165435791
v 0.8977319598197937 0.31627294421195984 0.15773928165435791
v 0.8977319598197937 0.32627293467521667 0.22773611545562744
v 0.8977319598197937 0.31627294421195984 0.22773611545562744
v 0.96773260831832886 0.32627293467521667 0.22773611545562744
v 0.96773260831832886 0.31627294421195984 0.22773611545562744
v 0.8977319598197937 0.32627293467521667 0.15773928165435791
v 0.8977319598197937 0.31627294421195984 0.15773928165435791
v 0.96773260831832886 0.31627294421195984 0.22773611545562744
v 0.96773260831832886 0.31627294421195984 0.22773611545562744
v 0.8977319598197937 0.31627294421195984 0.22773611545562744
v 0.8977319598197937 0.31627294421195984 0.15773928165435791
vt 0.9318661093711853 0.1333380788564682
vt 0.46666547656059265 0.1333380788564682
vt 0.9318661093711853 0.79185295104980469
vt 0.46666547656059265 0.79185295104980469
vt 0 0.0666690394282341
vt 0 0.1318732351064682
vt 0.46668678522109985 0.0666690394282341
vt 0.46668678522109985 0.1318732351064682
vt 0 0
vt 0 0.0652041956782341
vt 0.46666547656059265 0
vt 0.46666547656059265 0.0652041956782341
vt 0.99853515625 0
vt 0.9333309531211853 0
vt 0.99853515625 0.65997970104217529
vt 0.9333309531211853 0.65997970104217529
vt 0.46520063281059265 0.1333380788564682
vt 0 0.1333380788564682
vt 0.46520063281059265 0.79185295104980469
vt 0 0.79185295104980469
vn 0 1 0
vn 0 1 0
vn 0 1 0
vn 0 1 0
vn 0 0 1
vn 0 0 1
vn 0 0 1
vn 0 0 1
vn -1 0 0
vn -1 0 0
vn -1 0 0
vn -1 0 0
vn 0.70709061622619629 0 -0.70712292194366455
vn 0.70709061622619629 0 -0.70712292194366455
vn 0.70709061622619629 0 -0.70712292194366455
vn 0.70709061622619629 0 -0.70712292194366455
vn 0 -1 0
vn 0 -1 0
vn 0 -1 0
vn 0 -1 0
f 2/2/2 4/4/4 3/3/3
f 6/6/6 8/8/8 7/7/7 5/5/5
f 10/10/10 12/12/12 11/11/11 9/9/9
f 14/14/14 16/16/16 15/15/15 13/13/13
f 18/18/18 19/19/19 20/20/20
g Group10 Group35
o object_2
usemtl Lightgreen
v 0.82773226499557495 0.29127293825149536 0.26273214817047119
v 0.82773226499557495 -0.0087270736694335938 0.26273214817047119
v 0.82773226499557495 0.29127293825149536 0.29773199558258057
v 0.82773226499557495 -0.0087270736694335938 0.29773199558258057
v 0.86273211240768433 0.29127293825149536 0.26273214817047119
v 0.86273211240768433 -0.0087270736694335938 0.26273214817047119
v 0.82773226499557495 0.29127293825149536 0.26273214817047119
v 0.82773226499557495 -0.0087270736694335938 0.26273214817047119
v 0.86273211240768433 0.29127293825149536 0.29773199558258057
v 0.86273211240768433 -0.0087270736694335938 0.29773199558258057
v 0.86273211240768433 0.29127293825149536 0.26273214817047119
v 0.86273211240768433 -0.0087270736694335938 0.26273214817047119
v 0.82773226499557495 0.29127293825149536 0.29773199558258057
v 0.82773226499557495 -0.0087270736694335938 0.29773199558258057
v 0.86273211240768433 0.29127293825149536 0.29773199558258057
v 0.86273211240768433 -0.0087270736694335938 0.29773199558258057
v 0.82773226499557495 0.29127293825149536 0.26273214817047119
v 0.82773226499557495 0.29127293825149536 0.29773199558258057
v 0.86273211240768433 0.29127293825149536 0.26273214817047119
v 0.86273211240768433 0.29127293825149536 0.29773199558258057
v 0.82773226499557495 -0.0087270736694335938 0.26273214817047119
v 0.82773226499557495 -0.0087270736694335938 0.29773199558258057
v 0.86273211240768433 -0.0087270736694335938 0.26273214817047119
v 0.86273211240768433 -0.0087270736694335938 0.29773199558258057
vt 0 0
vt 0 0.89405757188796997
vt 0.10301277041435242 0
vt 0.10301277041435242 0.89405757188796997
vt 0.99853515625 0.44776120781898499
vt 0.10447761416435242 0.44776120781898499
vt 0.99853515625 0.5522388219833374
vt 0.10447761416435242 0.5522388219833374
vt 0.99853515625 0.22388060390949249
vt 0.10447761416435242 0.22388060390949249
vt 0.99853515625 0.32835820317268372
vt 0.10447761416435242 0.32835820317268372
vt 0.99853515625 0.6716417670249939
vt 0.10447761416435242 0.6716417670249939
vt 0.99853515625 0.7761194109916687
vt 0.10447761416435242 0.7761194109916687
vt 0.65671640634536743 0
vt 0.5522388219833374 0
vt 0.65671640634536743 0.10447761416435242
vt 0.5522388219833374 0.10447761416435242
vt 0.20895522832870483 0
vt 0.10447761416435242 0
vt 0.20895522832870483 0.10447761416435242
vt 0.10447761416435242 0.10447761416435242
vn -1 0 0
vn -1 0 0
vn -1 0 0
vn -1 0 0
vn 0 0 -1
vn 0 0 -1
vn 0 0 -1
vn 0 0 -1
vn 1 0 0
vn 1 0 0
vn 1 0 0
vn 1 0 0
vn 0 0 1
vn 0 0 1
vn 0 0 1
vn 0 0 1
vn 0 1 0
vn 0 1 0
vn 0 1 0
vn 0 1 0
vn 0 -1 0
vn 0 -1 0
vn 0 -1 0
vn 0 -1 0
f 22/22/22 24/24/24 23/23/23 21/21/21
f 26/26/26 28/28/28 27/27/27 25/25/25
f 30/30/30 32/32/32 31/31/31 29/29/29
f 34/34/34 36/36/36 35/35/35 33/33/33
f 38/38/38 40/40/40 39/39/39 37/37/37
f 42/42/42 41/41/41 43/43/43 44/44/44
o object_3
usemtl Lightgreen
v 0.86273211240768433 0.32627293467521667 0.29773199558258057
v 0.82773226499557495 0.32627293467521667 0.29773199558258057
v 0.82773226499557495 0.32627293467521667 0.26273214817047119
v 0.82773226499557495 0.32627293467521667 0.26273214817047119
v 0.82773226499557495 0.29127293825149536 0.26273214817047119
v 0.86273211240768433 0.32627293467521667 0.29773199558258057
v 0.86273211240768433 0.29127293825149536 0.29773199558258057
v 0.82773226499557495 0.32627293467521667 0.29773199558258057
v 0.82773226499557495 0.29127293825149536 0.29773199558258057
v 0.82773226499557495 0.32627293467521667 0.26273214817047119
v 0.82773226499557495 0.29127293825149536 0.26273214817047119
v 0.86273211240768433 0.32627293467521667 0.29773199558258057
v 0.86273211240768433 0.29127293825149536 0.29773199558258057
v 0.82773226499557495 0.32627293467521667 0.29773199558258057
v 0.82773226499557495 0.29127293825149536 0.29773199558258057
v 0.86273211240768433 0.29127293825149536 0.29773199558258057
v 0.82773226499557495 0.29127293825149536 0.29773199558258057
v 0.82773226499557495 0.29127293825149536 0.26273214817047119
vt 0 0.3333333432674408
vt 0 0.66666668653488159
vt 0.3318684995174408 0.66666668653488159
vt 0.66520184278488159 0.3333333432674408
vt 0.3333333432674408 0.3333333432674408
vt 0.66520184278488159 0.80327302217483521
vt 0.3333333432674408 0.80327302217483521
vt 0.99853515625 0
vt 0.66666668653488159 0
vt 0.99853515625 0.3333333432674408
vt 0.66666668653488159 0.3333333432674408
vt 0 0
vt 0 0.3318684995174408
vt 0.3333333432674408 0
vt 0.3333333432674408 0.3318684995174408
vt 0.99853515625 0.4023689329624176
vt 0.66666668653488159 0.4023689329624176
vt 0.66666668653488159 0.7357022762298584
vn 0 1 0
vn 0 1 0
vn 0 1 0
vn 0.70710676908493042 0 -0.70710676908493042
vn 0.70710676908493042 0 -0.70710676908493042
vn 0.70710676908493042 0 -0.70710676908493042
vn 0.70710676908493042 0 -0.70710676908493042
vn -1 0 0
vn -1 0 0
vn -1 0 0
vn -1 0 0
vn 0 0 1
vn 0 0 1
vn 0 0 1
vn 0 0 1
vn 0 -1 0
vn 0 -1 0
vn 0 -1 0
f 46/46/46 45/45/45 47/47/47
f 49/49/49 48/48/48 50/50/50 51/51/51
f 53/53/53 52/52/52 54/54/54 55/55/55
f 57/57/57 56/56/56 58/58/58 59/59/59
f 61/61/61 62/62/62 60/60/60
